<?xml version="1.0" encoding="utf-8"?>
<!-- Generator: Adobe Illustrator 28.0.0, SVG Export Plug-In . SVG Version: 6.00 Build 0)  -->
<svg version="1.0" id="Layer_1" xmlns="http://www.w3.org/2000/svg" xmlns:xlink="http://www.w3.org/1999/xlink" x="0px" y="0px"
	 viewBox="0 0 213.03 46.61" enable-background="new 0 0 213.03 46.61" xml:space="preserve">
<g>
	<path fill="#E4C3FF" d="M159.1,3.11c0,0,36.71-7,45.76,0c9.06,5.8,13.04,19.2-1.21,29.22s-62.42,8.57-62.42,8.57
		s-53.93,0.71-57.14,1.7c-3.21,1-15.33,3.35-26.17,3.56s-32.08,0.5-42.99-6.06S0.25,26.64,0.25,19.94S6.24,2.97,21.07,2.11
		S62.63,4.04,88.8,6.67S159.1,3.11,159.1,3.11z"/>
	<path fill="none" stroke="#E4C3FF" stroke-miterlimit="10" d="M159.93,4.73c0,0-16.5-5.84-60.85,4.27"/>
	<path fill="none" stroke="#E4C3FF" stroke-miterlimit="10" d="M142.75,37.96c0,0-23.91,5.73-49.85,7.19
		c-9.65,1.68-16.84,1.23-23.35-1.8"/>
	<path fill="none" stroke="#E4C3FF" stroke-miterlimit="10" d="M25.55,42.67c0,0-33.01-2.26-23.24-19.54"/>
</g>
</svg>
