<?xml version="1.0" encoding="utf-8"?>
<!-- Generator: Adobe Illustrator 28.0.0, SVG Export Plug-In . SVG Version: 6.00 Build 0)  -->
<svg version="1.0" id="Layer_1" xmlns="http://www.w3.org/2000/svg" xmlns:xlink="http://www.w3.org/1999/xlink" x="0px" y="0px"
	 viewBox="0 0 254.17 245.32" enable-background="new 0 0 254.17 245.32" xml:space="preserve">
<path fill="#C39364" d="M39.23,179.65c10.54,10.51,20.87,20.81,31.19,31.11c5.03,5.02,10.07,10.04,15.1,15.06
	c3.01,3.01,4.54,6.6,3.67,10.86c-0.76,3.76-2.84,7.15-6.57,7.97c-4.26,0.93-8.84,1.46-12.58-2.37
	c-8.81-9.01-17.78-17.85-26.69-26.76c-12.79-12.79-25.59-25.57-38.35-38.38c-6.42-6.44-6.74-12.38-0.44-18.81
	c12.99-13.28,26.22-26.34,39.35-39.48c8.37-8.38,16.76-16.75,25.12-25.15c5.54-5.56,12.33-6.07,17.13-1.22
	c4.83,4.87,4.33,11.6-1.28,17.21c-14.55,14.56-29.1,29.13-43.64,43.69c-0.6,0.6-1.4,1.05-1.55,2.11c1.16,0.97,2.58,0.49,3.85,0.49
	c41.79,0.03,83.59-0.07,125.38,0.06c34.38,0.11,57.82-24.23,62.28-55.56c2.51-17.61,0.08-34.37-9.16-49.76
	c-9.53-15.86-23.77-24.76-41.94-27.6c-6.2-0.97-12.43-0.81-18.66-0.81c-49.15-0.02-98.31-0.03-147.46,0.01
	c-4.99,0-9.17-1.46-11.65-5.98C-1.98,8.54,3.28,0.04,12.45,0.03c39.8-0.05,79.59-0.02,119.39-0.02c13.1,0,26.2-0.01,39.3,0.01
	c41.55,0.08,72.41,27.67,80.77,67.91c4.28,20.61,2.62,40.77-6,60.05c-13.22,29.58-36.2,46.1-68.26,50.17
	c-5.1,0.65-10.19,0.67-15.3,0.67c-39.8,0-79.59,0-119.39,0.02C41.89,178.84,40.74,178.5,39.23,179.65z"/>
</svg>
