<?xml version="1.0" encoding="utf-8"?>
<!-- Generator: Adobe Illustrator 28.0.0, SVG Export Plug-In . SVG Version: 6.00 Build 0)  -->
<svg version="1.0" id="Layer_1" xmlns="http://www.w3.org/2000/svg" xmlns:xlink="http://www.w3.org/1999/xlink" x="0px" y="0px"
	 viewBox="0 0 288.16 288.68" enable-background="new 0 0 288.16 288.68" xml:space="preserve">
<path fill="#D2B1EB" d="M288.12,143.98c1.76,78.74-64.65,145.06-144.16,144.7C64.83,288.32-0.39,224.13,0,143.82
	C0.39,64.61,64.06-0.1,145.08,0C224.58,0.1,289.53,66.46,288.12,143.98z M144.84,11.16C71.7,9.83,11.6,70.58,10.98,142.86
	c-0.65,74.97,59.69,134.6,132.3,135.09c74.63,0.5,134.19-59.78,134.41-133.32C277.91,71.05,217.65,10.5,144.84,11.16z"/>
<path fill="#D2B1EB" d="M68.81,198.35c0-11.36,0.06-22.72-0.05-34.08c-0.02-2.42,0.61-4.19,2.37-5.94
	c23.6-23.52,47.14-47.08,70.63-70.71c2.01-2.02,3.16-2.23,5.3-0.07c23.38,23.56,46.85,47.02,70.36,70.45
	c1.83,1.82,2.69,3.65,2.55,6.24c-0.54,10.19,0.31,20.44-0.3,30.56c-0.6,10.09,1.29,20.11-0.19,30.18c-0.45,3.05,0.23,6.37-0.12,9.59
	c-0.17,1.57-0.73,2.2-2.29,2.19c-13.84-0.02-27.69-0.03-41.53,0c-2.58,0.01-2.66-1.65-2.65-3.53c0.02-9.49,0.01-18.97,0.01-28.46
	c0-12.98-0.08-25.97,0.06-38.95c0.03-2.98-0.63-4.12-3.88-4.09c-16.71,0.16-33.42,0.14-50.13,0.01c-2.99-0.02-3.78,0.88-3.76,3.81
	c0.11,22.34,0,44.69,0.13,67.03c0.02,3.2-0.7,4.3-4.11,4.25c-12.84-0.21-25.69-0.19-38.53-0.01c-3.21,0.04-3.95-1.02-3.91-4.05
	C68.91,221.32,68.81,209.84,68.81,198.35z"/>
<path fill="#D2B1EB" d="M48.65,155.85c4.28-6.04,9.16-10.52,13.58-15.39c15.93-17.5,32.11-34.76,48.15-52.17
	c10.29-11.17,20.53-22.37,30.68-33.66c2.45-2.73,4.26-2.7,6.65,0.03c6.31,7.21,12.77,14.3,19.23,21.37c0.85,0.93,1.6,2.77,3.11,2.13
	c1.24-0.52,0.55-2.26,0.56-3.44c0.06-6.49,0.1-12.99-0.01-19.48c-0.04-2.56,0.83-3.56,3.46-3.54c11.1,0.09,22.21,0.15,33.31-0.04
	c3.13-0.05,3.69,1.09,3.68,3.9c-0.1,21.48,0,42.95-0.12,64.43c-0.02,2.87,0.93,4.84,2.85,6.89c8.76,9.33,17.36,18.81,26.62,28.9
	c-5.45,0-10.25,0.72-14.7-0.22c-3.72-0.78-5.74-4.9-8.44-7.62c-1.05-1.05-1.91-2.29-2.95-3.36c-15.84-16.41-31.89-32.63-47.44-49.31
	c-6.54-7.02-13.81-13.35-19.74-20.93c-1.89-2.42-3.34-1.6-5.1,0.25c-15.01,15.82-30.05,31.62-45.14,47.37
	c-9.14,9.54-18.66,18.73-27.44,28.59c-3.82,4.29-7.72,6.03-13.18,5.34C53.97,155.61,51.6,155.85,48.65,155.85z"/>
</svg>
