<?xml version="1.0" encoding="utf-8"?>
<!-- Generator: Adobe Illustrator 28.0.0, SVG Export Plug-In . SVG Version: 6.00 Build 0)  -->
<svg version="1.0" id="Layer_1" xmlns="http://www.w3.org/2000/svg" xmlns:xlink="http://www.w3.org/1999/xlink" x="0px" y="0px"
	 viewBox="0 0 246.43 247.04" enable-background="new 0 0 246.43 247.04" xml:space="preserve">
<path fill="#D2B1EB" d="M0.01,122.87C-0.3,55.9,54.84-0.06,123.33,0c67.91,0.06,124.86,56.09,123.06,127.01
	c-1.63,64.53-54.44,120.17-123.61,120.03C54.37,246.9-0.85,190.86,0.01,122.87z M45.1,196.24c0.94-1.4,1.65-2.4,2.31-3.44
	c5.07-7.94,11.39-14.76,18.69-20.66c13.48-10.9,28.75-17.5,46.04-19.54c17.91-2.11,35.01,0.55,51.12,8.55
	c15.27,7.59,27.55,18.68,36.5,33.31c0.94,1.54,1.47,1.92,2.93,0.32c3.69-4.08,6.94-8.44,9.93-13.05
	c17.13-26.48,21.7-55.23,13.8-85.47c-7.97-30.48-26.53-53.31-54.51-67.84c-17.86-9.28-37-13.35-57.34-11.42
	c-9.86,0.94-19.43,2.79-28.63,6.28c-18.93,7.18-34.88,18.55-47.13,34.81c-22.22,29.5-27.96,62.09-17.54,97.44
	C25.77,170.8,33.66,184.27,45.1,196.24z"/>
<path fill="#D2B1EB" d="M122.83,137.06c-27.8-0.01-50.01-22.18-49.98-50.21c0.03-28.79,23.15-50.5,50.81-50.21
	c26.9,0.28,49.57,21.17,49.74,50.12C173.57,115.31,150.69,137.44,122.83,137.06z"/>
</svg>
